<?xml version="1.0" encoding="utf-8"?>
<!-- Generator: Adobe Illustrator 16.0.0, SVG Export Plug-In . SVG Version: 6.00 Build 0)  -->
<!DOCTYPE svg PUBLIC "-//W3C//DTD SVG 1.1//EN" "http://www.w3.org/Graphics/SVG/1.1/DTD/svg11.dtd">
<svg version="1.1" id="Capa_1" xmlns="http://www.w3.org/2000/svg" xmlns:xlink="http://www.w3.org/1999/xlink" x="0px" y="0px"
	 width="214.5px" height="96px" viewBox="0 0 214.5 96" enable-background="new 0 0 214.5 96" xml:space="preserve">
<g>
	<defs>
		<polygon id="SVGID_1_" points="5.282,59.047 19.701,59.1 27.601,69.705 27.601,23.431 35.369,57.921 54.237,57.921 27.574,6.223 
					"/>
	</defs>
	<clipPath id="SVGID_2_">
		<use xlink:href="#SVGID_1_"  overflow="visible"/>
	</clipPath>
	
		<linearGradient id="SVGID_3_" gradientUnits="userSpaceOnUse" x1="-570.9707" y1="1688.7441" x2="-569.9707" y2="1688.7441" gradientTransform="matrix(48.9544 0 0 -48.9544 27956.8027 82709.5)">
		<stop  offset="0" style="stop-color:#4088C3"/>
		<stop  offset="1" style="stop-color:#296B9D"/>
	</linearGradient>
	<rect x="5.282" y="6.223" clip-path="url(#SVGID_2_)" fill="url(#SVGID_3_)" width="48.955" height="63.482"/>
</g>
<g>
	<defs>
		<polygon id="SVGID_4_" points="19.7,59.1 27.601,69.705 27.6,23.431 		"/>
	</defs>
	<clipPath id="SVGID_5_">
		<use xlink:href="#SVGID_4_"  overflow="visible"/>
	</clipPath>
	<polyline clip-path="url(#SVGID_5_)" fill="#246491" points="-26.765,38.211 29.487,-18.041 85.741,38.211 29.487,94.465 	"/>
</g>
<path fill="#296B9D" d="M64.157,35.05v-0.137c0-13.084,9.609-24.669,23.919-24.669c8.042,0,13.017,2.318,17.787,6.337l-3.475,4.09
	c-3.681-3.204-7.771-5.453-14.517-5.453c-10.563,0-18.127,8.929-18.127,19.559v0.136c0,11.381,7.292,19.832,18.876,19.832
	c5.452,0,10.496-2.113,13.768-4.77V38.117H87.872v-4.839h19.694V52.29c-4.43,3.952-11.107,7.293-19.149,7.293
	C73.425,59.583,64.157,48.679,64.157,35.05"/>
<polygon fill="#296B9D" points="119.698,11.062 154.18,11.062 154.18,15.968 125.081,15.968 125.081,32.255 151.113,32.255 
	151.113,37.163 125.081,37.163 125.081,53.857 154.52,53.857 154.52,58.765 119.698,58.765 "/>
<path fill="#296B9D" d="M163.246,35.05v-0.137c0-13.151,9.88-24.669,24.396-24.669c14.515,0,24.259,11.381,24.259,24.533v0.136
	c0,13.153-9.879,24.67-24.395,24.67S163.246,48.201,163.246,35.05 M206.314,35.05v-0.137c0-10.835-7.906-19.695-18.809-19.695
	c-10.903,0-18.673,8.724-18.673,19.559v0.136c0,10.836,7.905,19.695,18.809,19.695S206.314,45.886,206.314,35.05"/>
<polygon fill="#989899" points="5.79,77.469 13.28,77.469 13.28,79.058 7.564,79.058 7.564,81.685 12.63,81.685 12.63,83.271 
	7.564,83.271 7.564,85.986 13.353,85.986 13.353,87.573 5.79,87.573 "/>
<path fill="#989899" d="M17.956,86.102l1.068-1.271c0.967,0.837,1.934,1.313,3.19,1.313c1.097,0,1.79-0.503,1.79-1.27v-0.028
	c0-0.723-0.404-1.112-2.281-1.545c-2.151-0.52-3.363-1.154-3.363-3.017v-0.029c0-1.732,1.443-2.931,3.45-2.931
	c1.472,0,2.641,0.448,3.666,1.271l-0.952,1.342c-0.91-0.678-1.82-1.039-2.743-1.039c-1.04,0-1.646,0.535-1.646,1.199v0.027
	c0,0.78,0.462,1.126,2.396,1.588c2.137,0.52,3.249,1.286,3.249,2.959V84.7c0,1.892-1.488,3.019-3.609,3.019
	C20.626,87.719,19.168,87.184,17.956,86.102"/>
<polygon fill="#989899" points="33.53,79.115 30.325,79.115 30.325,77.469 38.523,77.469 38.523,79.115 35.32,79.115 35.32,87.573 
	33.53,87.573 "/>
<path fill="#989899" d="M43.416,83.286v-5.817h1.776v5.746c0,1.875,0.967,2.887,2.555,2.887c1.573,0,2.54-0.953,2.54-2.815v-5.817
	h1.775v5.73c0,3.018-1.703,4.534-4.344,4.534C45.09,87.733,43.416,86.217,43.416,83.286"/>
<path fill="#989899" d="M57.676,77.47h3.767c3.175,0,5.37,2.18,5.37,5.021v0.03c0,2.844-2.195,5.052-5.37,5.052h-3.767V77.47z
	 M61.443,85.956c2.122,0,3.507-1.429,3.507-3.405v-0.029c0-1.979-1.385-3.436-3.507-3.436h-1.992v6.87H61.443z"/>
<rect x="72.238" y="77.469" fill="#989899" width="1.776" height="10.104"/>
<path fill="#989899" d="M79.44,82.551v-0.029c0-2.844,2.194-5.225,5.298-5.225c3.103,0,5.268,2.352,5.268,5.195v0.029
	c0,2.845-2.194,5.225-5.297,5.225C81.605,87.746,79.44,85.394,79.44,82.551 M88.144,82.551v-0.029c0-1.963-1.429-3.595-3.435-3.595
	s-3.407,1.603-3.407,3.565v0.029c0,1.963,1.429,3.595,3.436,3.595C86.744,86.116,88.144,84.513,88.144,82.551"/>
<polygon fill="#989899" points="105.81,83.59 101.797,77.47 103.89,77.47 106.719,81.943 109.576,77.47 111.611,77.47 107.6,83.547 
	107.6,87.573 105.81,87.573 "/>
<path fill="#989899" d="M123.402,82.551v-0.029c0-2.844,2.195-5.225,5.297-5.225c3.104,0,5.27,2.352,5.27,5.195v0.029
	c0,2.845-2.195,5.225-5.299,5.225C125.567,87.746,123.402,85.394,123.402,82.551 M132.106,82.551v-0.029
	c0-1.963-1.431-3.595-3.437-3.595s-3.404,1.603-3.404,3.565v0.029c0,1.963,1.428,3.595,3.434,3.595
	C130.707,86.116,132.106,84.513,132.106,82.551"/>
<path fill="#989899" d="M139.293,77.47h3.985c2.351,0,3.839,1.341,3.839,3.378v0.027c0,2.268-1.82,3.451-4.042,3.451h-2.007v3.247
	h-1.775V77.47z M143.133,82.724c1.342,0,2.18-0.75,2.18-1.804v-0.029c0-1.184-0.853-1.805-2.18-1.805h-2.064v3.638H143.133z"/>
<rect x="152.211" y="77.469" fill="#989899" width="1.773" height="10.104"/>
<polygon fill="#989899" points="159.859,77.469 161.506,77.469 166.918,84.455 166.918,77.469 168.666,77.469 168.666,87.573 
	167.18,87.573 161.607,80.385 161.607,87.573 159.859,87.573 "/>
<rect x="174.539" y="77.469" fill="#989899" width="1.775" height="10.104"/>
<path fill="#989899" d="M181.74,82.551v-0.029c0-2.844,2.194-5.225,5.297-5.225c3.104,0,5.269,2.352,5.269,5.195v0.029
	c0,2.844-2.192,5.225-5.297,5.225S181.74,85.394,181.74,82.551 M190.443,82.551v-0.029c0-1.963-1.43-3.595-3.435-3.595
	c-2.006,0-3.406,1.603-3.406,3.565v0.029c0,1.963,1.429,3.594,3.435,3.594S190.443,84.514,190.443,82.551 M187.918,74.395
	l1.588,0.692l-1.848,1.4h-1.356L187.918,74.395z"/>
<polygon fill="#989899" points="197.631,77.469 199.276,77.469 204.688,84.455 204.688,77.469 206.437,77.469 206.437,87.573 
	204.948,87.573 199.377,80.385 199.377,87.573 197.631,87.573 "/>
</svg>
