<?xml version="1.0" encoding="UTF-8" standalone="no"?><svg xmlns="http://www.w3.org/2000/svg" xmlns:xlink="http://www.w3.org/1999/xlink" width="20px" height="20px" viewBox="0 0 20 20" version="1.1"><title>instagram [#167]</title><g id="Page-1" stroke="none" stroke-width="1" fill="none" fill-rule="evenodd"><g id="Dribbble-Light-Preview" transform="translate(-340.000000, -7439.000000)" fill="#000"><g id="icons" transform="translate(56.000000, 160.000000)"><path d="M289.87 7279.123c-1.628.073-3.04.471-4.179 1.606-1.143 1.14-1.536 2.557-1.61 4.168-.045 1.005-.313 8.601.463 10.593a5.04 5.04 0 0 0 2.91 2.903c.634.246 1.356.412 2.416.461 8.86.401 12.145.183 13.53-3.364.246-.631.415-1.353.462-2.41.405-8.883-.066-10.809-1.61-12.351-1.225-1.222-2.666-2.054-12.382-1.606m.081 17.944c-.97-.043-1.496-.205-1.848-.341a3.255 3.255 0 0 1-1.888-1.883c-.591-1.514-.395-8.703-.342-9.866.051-1.14.282-2.18 1.086-2.985.995-.992 2.28-1.479 11.034-1.084 1.142.052 2.186.282 2.992 1.084.995.993 1.489 2.288 1.087 11.008-.044.968-.206 1.493-.342 1.843-.901 2.308-2.973 2.628-11.779 2.224m8.139-13.377c0 .657.534 1.19 1.194 1.19.66 0 1.195-.533 1.195-1.19a1.194 1.194 0 0 0-2.39 0m-9.226 5.298a5.103 5.103 0 0 0 5.11 5.097 5.103 5.103 0 0 0 5.109-5.097 5.102 5.102 0 0 0-5.11-5.096 5.102 5.102 0 0 0-5.11 5.096m1.794 0a3.313 3.313 0 0 1 3.316-3.308 3.313 3.313 0 0 1 3.317 3.308 3.313 3.313 0 0 1-3.317 3.31 3.313 3.313 0 0 1-3.316-3.31" id="instagram-[#167]"/></g></g></g><metadata><rdf:RDF xmlns:rdf="http://www.w3.org/1999/02/22-rdf-syntax-ns#" xmlns:rdfs="http://www.w3.org/2000/01/rdf-schema#" xmlns:dc="http://purl.org/dc/elements/1.1/"><rdf:Description about="https://iconscout.com/legal#licenses" dc:title="instagram" dc:description="instagram" dc:publisher="Iconscout" dc:date="2017-09-15" dc:format="image/svg+xml" dc:language="en"><dc:creator><rdf:Bag><rdf:li>Alexandru Stoica</rdf:li></rdf:Bag></dc:creator></rdf:Description></rdf:RDF></metadata></svg>