<?xml version="1.0" encoding="utf-8"?>
<!-- Generator: Adobe Illustrator 16.0.0, SVG Export Plug-In . SVG Version: 6.00 Build 0)  -->
<!DOCTYPE svg PUBLIC "-//W3C//DTD SVG 1.1//EN" "http://www.w3.org/Graphics/SVG/1.1/DTD/svg11.dtd">
<svg version="1.1" id="Layer_1" xmlns="http://www.w3.org/2000/svg" xmlns:xlink="http://www.w3.org/1999/xlink" x="0px" y="0px"
	 width="1960.402px" height="386.98px" viewBox="0 0 1960.402 386.98" enable-background="new 0 0 1960.402 386.98"
	 xml:space="preserve">
<g>
	<path d="M107.425,173.589l-24.575-14.93c-15.415-9.412-26.381-18.672-32.901-27.781c-6.523-9.107-9.782-19.588-9.782-31.445
		c0-17.785,6.169-32.229,18.512-43.33c12.34-11.102,28.375-16.654,48.099-16.654c18.861,0,36.161,5.295,51.899,15.885v36.701
		C142.4,76.38,124.886,68.552,106.131,68.552c-10.565,0-19.24,2.441-26.03,7.328c-6.791,4.885-10.186,11.139-10.186,18.76
		c0,6.766,2.501,13.102,7.502,19.004c5.002,5.906,13.046,12.105,24.131,18.602l24.696,14.613
		c27.548,16.457,41.324,37.402,41.324,62.838c0,18.107-6.063,32.82-18.189,44.139c-12.126,11.316-27.89,16.977-47.291,16.977
		c-22.312,0-42.63-6.857-60.953-20.574v-41.066c17.461,22.125,37.671,33.186,60.629,33.186c10.13,0,18.565-2.82,25.303-8.459
		c6.735-5.639,10.105-12.699,10.105-21.186C137.174,198.966,127.256,185.925,107.425,173.589z"/>
	<path d="M313.969,39.126c34.897,0,63.954,11.049,87.167,33.145c23.211,22.096,34.819,49.797,34.819,83.102
		c0,33.307-11.714,60.873-35.143,82.699s-52.967,32.74-88.62,32.74c-34.038,0-62.395-10.914-85.068-32.74
		c-22.676-21.826-34.011-49.176-34.011-82.053c0-33.734,11.416-61.652,34.253-83.748C250.202,50.175,279.069,39.126,313.969,39.126z
		 M315.262,69.845c-25.846,0-47.086,8.084-63.724,24.252s-24.957,36.809-24.957,61.922c0,24.361,8.344,44.623,25.038,60.791
		c16.691,16.168,37.583,24.252,62.673,24.252c25.196,0,46.222-8.244,63.077-24.736c16.853-16.49,25.28-37.023,25.28-61.6
		c0-23.928-8.427-44.057-25.28-60.387C360.515,78.009,339.812,69.845,315.262,69.845z"/>
	<path d="M670.39,215.841v35.568c-23.714,12.936-51.09,19.402-82.133,19.402c-25.222,0-46.619-5.066-64.187-15.199
		c-17.57-10.129-31.474-24.09-41.713-41.873c-10.241-17.785-15.359-37.025-15.359-57.721c0-32.873,11.722-60.52,35.165-82.941
		c23.443-22.416,52.356-33.629,86.741-33.629c23.711,0,50.064,6.199,79.061,18.594v34.762
		c-26.409-15.09-52.222-22.637-77.444-22.637c-25.869,0-47.347,8.166-64.429,24.496c-17.085,16.328-25.626,36.781-25.626,61.355
		c0,24.793,8.407,45.164,25.222,61.115c16.814,15.953,38.317,23.928,64.51,23.928C617.574,241.062,644.304,232.655,670.39,215.841z"
		/>
	<path d="M710.486,42.358h32.336v225.865h-32.336V42.358z"/>
	<path d="M865.058,41.065h22.726l101.274,227.158h-33.096l-30.103-66.934h-96.363l-28.223,66.934h-33.23L865.058,41.065z
		 M912.566,172.511L876.125,90.7l-33.793,81.811H912.566z"/>
	<path d="M1013.795,42.358h32.336v196.439h101.696v29.426h-134.032V42.358z"/>
</g>
<g>
	<path fill="#DD1D41" d="M1478.074,38.387h36.728l-108.916,309.507h-8.353l-111.02-309.507h37.131l77.472,216.421L1478.074,38.387z"
		/>
	<path fill="#DD1D41" d="M1543.015,38.387h146.05V77.66H1579.89v93.977h23.728v39.49h-23.728v95.74h112.678v39.261h-149.553V38.387z
		"/>
	<path fill="#DD1D41" d="M1819.083,346.572h-87.227V38.387h67.486c21.274,0,37.86,3.423,49.785,10.255
		c11.923,6.843,21.031,16.262,27.296,28.238c6.266,11.992,9.404,25.855,9.404,41.593c0,30.286-13.096,51.979-39.273,65.076
		c18.809,4.27,33.777,13.526,44.904,27.795c11.115,14.269,16.682,31.324,16.682,51.184c0,15.736-3.383,29.774-10.146,42.13
		c-6.749,12.355-16.679,22.435-29.776,30.222C1855.124,342.681,1838.739,346.572,1819.083,346.572z M1800.448,77.66h-31.717v92.644
		h24.523c19.669,0,33.655-4.474,41.954-13.446c8.3-8.975,12.449-20.588,12.449-34.856
		C1847.658,92.442,1831.921,77.66,1800.448,77.66z M1803.21,209.577h-34.479v97.721h36.323c20.172,0,33.847-1.871,41.041-5.617
		c7.182-3.746,12.961-9.593,17.327-17.542c4.364-7.936,6.547-16.463,6.547-25.585c0-9.419-2.304-18.015-6.91-25.817
		c-4.608-7.786-11.157-13.593-19.645-17.419C1834.939,211.49,1821.533,209.577,1803.21,209.577z"/>
</g>
<rect x="208.291" y="284.366" fill="#DD1D41" width="218.55" height="62.545"/>
<path fill="#DD1D41" d="M352.482,155.268c0,20.666-16.762,37.428-37.43,37.428c-20.668,0-37.428-16.762-37.428-37.428
	c0-20.668,16.76-37.43,37.428-37.43C335.721,117.838,352.482,134.6,352.482,155.268z"/>
<path fill="#DD1D41" d="M1336.107,176.003h36.728l-60.184,171.445h-8.354l-111.02-309.506h37.134l77.469,216.421L1336.107,176.003z"
	/>
<g>
	<path fill="#DD1D41" d="M1502.206,38.387h36.728l-108.919,309.507h-8.353l-111.02-309.507h37.132l77.473,216.421L1502.206,38.387z"
		/>
	<path fill="#DD1D41" d="M1567.145,38.387h146.05V77.66h-109.173v93.977l0,0v39.49l0,0v95.74H1716.7v39.261h-149.555V38.387z"/>
	<path fill="#DD1D41" d="M1843.211,346.572h-87.225V38.387h67.486c21.274,0,37.86,3.423,49.783,10.255
		c11.925,6.843,21.032,16.262,27.298,28.238c6.266,11.992,9.405,25.855,9.405,41.593c0,30.286-13.098,51.979-39.276,65.076
		c18.809,4.27,33.777,13.526,44.906,27.795c11.116,14.269,16.682,31.324,16.682,51.184c0,15.736-3.383,29.774-10.146,42.13
		c-6.752,12.355-16.682,22.435-29.777,30.222C1879.252,342.681,1862.87,346.572,1843.211,346.572z M1824.579,77.66h-31.717v92.644
		h24.521c19.672,0,33.657-4.474,41.956-13.446c8.3-8.975,12.449-20.588,12.449-34.856
		C1871.789,92.442,1856.053,77.66,1824.579,77.66z M1827.339,209.577h-34.478v97.721h36.324c20.171,0,33.845-1.871,41.04-5.617
		c7.182-3.746,12.96-9.593,17.326-17.542c4.365-7.936,6.549-16.463,6.549-25.585c0-9.419-2.306-18.015-6.912-25.817
		c-4.607-7.786-11.156-13.593-19.646-17.419C1859.07,211.49,1845.665,209.577,1827.339,209.577z"/>
</g>
<path fill="#DD1D41" d="M1359.509,176.003h36.729l-60.186,171.445h-8.353l-111.02-309.506h37.132l77.471,216.421L1359.509,176.003z"
	/>
<rect x="1310.642" y="322.483" fill="#DD1D41" width="25.411" height="24.965"/>
<rect x="1403.755" y="322.483" fill="#DD1D41" width="17.906" height="25.41"/>
<rect x="1589" y="227.079" fill="#DD1D41" width="91.213" height="36.915"/>
</svg>
